******** ******** **      ** *******
/**///// //////** /**     /**/**////**
/**           **  /**     /**/**    /**
/*******     **   /**********/**    /**
/**////     **    /**//////**/**    /**
/**        **     /**     /**/**    **
/**       ********/**     /**/*******
//       //////// //      // ///////

Titlu: The.Guns.of.Navarone.1961.1080p.BluRay.X264-FZHD
Data Lansarii: 06-11-2011
Sursa: The.Guns.of.Navarone.1961.1080p.BluRay.X264-AMIABLE (thanks!)

Cinemagia: http://www.cinemagia.ro/filme/the-guns-of-navarone-tunurile-din-navarone-6107/

Rating: 8.3/10 din 76 de voturi

Gen: Actiune, Razboi
Durata: 158 de minute
Subtitrare: Romana

Sinopsis:

Doua imense tunuri instalate de nazisti pe insula Navarone tin la respect operatiunile intreprinse in zona de fortele aliate.

Capt. Keith Mallory (Gregory Peck), Cpl. Miller (David Niven) si Col. Andrea Stavros (Antony Quinn) sunt aliatii sabotori carora li s-a atribuit o misiune imposibila: infiltrarea pe insula nazista si distrugerea armamentului inamic, acest lucru prevenind riscul capturarii celor 2000 de soldati ai trupelor britanice.
Ajutat de o distributie extraordinara si produs la o scara mare, filmul a inregistrat un succes enorm, primind nu mai putin de 7 nominalizari la premiul Oscar (inclusiv pentru cel mai bun film) si premiul pentru cele mai bune efecte speciale. Nuvela lui Alistair MacLean a devenit sursa de inspiratie pentru multe povestiri de aventura ecranizate, incluzand Ice Station Zebra si Where Eagles Dare.

Tunurile din Navarone este nu numai cea mai buna adaptare a lui MacLean, ci si de unul dintre cele mai bune spectacole de actiune si aventura realizate vreodata.

Detalii Tehnice:

General
Unique ID                        : 249967667387556535847282795671699816535 (0xBC0E0585F0FA7E90ADCEC0EC7BEB8057)
Complete name                    : The.Guns.of.Navarone.1961.1080p.BluRay.X264-FZHD.mkv
Format                           : Matroska
File size                        : 10.9 GiB
Duration                         : 2h 36mn
Overall bit rate                 : 10.0 Mbps
Movie name                       : The.Guns.of.Navarone.1961.1080p.BluRay.X264-FZHD - Muxed by JohnnyB
Encoded date                     : UTC 2011-11-06 11:37:23
Writing application              : mkvmerge v5.0.1 (\'Es ist Sommer\') built on Oct  9 2011 11:55:43
Writing library                  : libebml v1.2.2 + libmatroska v1.3.0

Video
ID                               : 1
Format                           : AVC
Format/Info                      : Advanced Video Codec
Format profile                   : High@L4.1
Format settings, CABAC           : Yes
Format settings, ReFrames        : 5 frames
Format settings, GOP             : M=4, N=59
Muxing mode                      : Header stripping
Codec ID                         : V_MPEG4/ISO/AVC
Duration                         : 2h 36mn
Bit rate                         : 8 500 Kbps
Width                            : 1 920 pixels
Height                           : 816 pixels
Display aspect ratio             : 2.35:1
Frame rate                       : 23.976 fps
Color space                      : YUV
Chroma subsampling               : 4:2:0
Bit depth                        : 8 bits
Scan type                        : Progressive
Bits/(Pixel*Frame)               : 0.226
Stream size                      : 9.06 GiB (83%)
Writing library                  : x264 core 118 r2085 8a62835
Encoding settings                : cabac=1 / ref=5 / deblock=1:0:0 / analyse=0x3:0x113 / me=umh / subme=8 / psy=1 / psy_rd=1.00:0.00 / mixed_ref=1 / me_range=16 / chroma_me=1 / trellis=1 / 8x8dct=1 / cqm=0 / deadzone=21,11 / fast_pskip=1 / chroma_qp_offset=-2 / threads=12 / sliced_threads=0 / nr=0 / decimate=1 / interlaced=0 / bluray_compat=0 / constrained_intra=0 / bframes=3 / b_pyramid=2 / b_adapt=2 / b_bias=0 / direct=3 / weightb=1 / open_gop=0 / weightp=2 / keyint=240 / keyint_min=24 / scenecut=40 / intra_refresh=0 / rc_lookahead=50 / rc=2pass / mbtree=1 / bitrate=8500 / ratetol=1.0 / qcomp=0.60 / qpmin=0 / qpmax=69 / qpstep=4 / cplxblur=20.0 / qblur=0.5 / ip_ratio=1.40 / aq=1:1.00
Language                         : English

Audio
ID                               : 2
Format                           : DTS
Format/Info                      : Digital Theater Systems
Muxing mode                      : Header stripping
Codec ID                         : A_DTS
Duration                         : 2h 36mn
Bit rate mode                    : Constant
Bit rate                         : 1 510 Kbps
Channel(s)                       : 6 channels
Channel positions                : Front: L C R, Side: L R, LFE
Sampling rate                    : 48.0 KHz
Bit depth                        : 24 bits
Compression mode                 : Lossy
Stream size                      : 1.65 GiB (15%)
Language                         : English

Text #1
ID                               : 3
Format                           : UTF-8
Codec ID                         : S_TEXT/UTF8
Codec ID/Info                    : UTF-8 Plain Text
Language                         : English

Text #2
ID                               : 4
Format                           : UTF-8
Codec ID                         : S_TEXT/UTF8
Codec ID/Info                    : UTF-8 Plain Text
Title                            : Romana
Language                         : Romanian

Menu
00:00:00.000                     : en:00:00:00.000
00:12:57.610                     : en:00:12:57.610
00:17:57.076                     : en:00:17:57.076
00:24:11.408                     : en:00:24:11.408
00:32:43.920                     : en:00:32:43.920
00:46:16.857                     : en:00:46:16.857
00:59:17.262                     : en:00:59:17.262
01:05:08.863                     : en:01:05:08.863
01:13:27.653                     : en:01:13:27.653
01:21:01.482                     : en:01:21:01.482
01:29:46.464                     : en:01:29:46.464
01:38:32.240                     : en:01:38:32.240
01:51:56.126                     : en:01:51:56.126
02:08:41.213                     : en:02:08:41.213
02:17:32.995                     : en:02:17:32.995
02:28:01.206                     : en:02:28:01.206



Muxed by JohnnyB @ SceneFZ HD Team

Notes: Sit Back, Relax!

*WARNING! Don`t click
